<?xml version="1.0" encoding="UTF-8" standalone="no"?>
<!-- Created with Inkscape (http://www.inkscape.org/) -->

<svg
   xmlns:dc="http://purl.org/dc/elements/1.1/"
   xmlns:cc="http://creativecommons.org/ns#"
   xmlns:rdf="http://www.w3.org/1999/02/22-rdf-syntax-ns#"
   xmlns:svg="http://www.w3.org/2000/svg"
   xmlns="http://www.w3.org/2000/svg"
   xmlns:sodipodi="http://sodipodi.sourceforge.net/DTD/sodipodi-0.dtd"
   xmlns:inkscape="http://www.inkscape.org/namespaces/inkscape"
   width="286.75513mm"
   height="521.97009mm"
   viewBox="0 0 286.75513 521.97009"
   version="1.1"
   id="svg1214"
   sodipodi:docname="QPL-logo-final.svg"
   inkscape:version="0.92.3 (2405546, 2018-03-11)">
  <defs
     id="defs1208" />
  <sodipodi:namedview
     id="base"
     pagecolor="#ffffff"
     bordercolor="#666666"
     borderopacity="1.0"
     inkscape:pageopacity="0.0"
     inkscape:pageshadow="2"
     inkscape:zoom="0.24748737"
     inkscape:cx="796.05777"
     inkscape:cy="599.30775"
     inkscape:document-units="mm"
     inkscape:current-layer="g2082"
     showgrid="false"
     inkscape:window-width="1920"
     inkscape:window-height="1016"
     inkscape:window-x="0"
     inkscape:window-y="27"
     inkscape:window-maximized="1" />
  <metadata
     id="metadata1211">
    <rdf:RDF>
      <cc:Work
         rdf:about="">
        <dc:format>image/svg+xml</dc:format>
        <dc:type
           rdf:resource="http://purl.org/dc/dcmitype/StillImage" />
      </cc:Work>
    </rdf:RDF>
  </metadata>
  <g
     inkscape:label="Calque 1"
     inkscape:groupmode="layer"
     id="layer1"
     transform="translate(547.53136,232.10177)">
    <g
       id="g2082"
       transform="translate(-633.96332,41.694047)">
      <g
         aria-label="QPL"
         style="font-style:normal;font-variant:normal;font-weight:normal;font-stretch:normal;font-size:129.25346375px;line-height:1.25;font-family:Bocklin;-inkscape-font-specification:Bocklin;letter-spacing:-18.29270744px;word-spacing:0px;fill:#cca447;fill-opacity:1;stroke:none;stroke-width:1.92881179;stroke-miterlimit:4;stroke-dasharray:none;stroke-opacity:1"
         id="text7278-4-0-3-4-32">
        <path
           d="m 161.75527,227.1915 c -3.10208,6.07491 -8.01372,9.82326 -13.70087,9.82326 -4.39462,0 -9.17699,-2.97283 -13.83012,-7.4967 45.49722,-1.80955 44.98021,-73.80373 -1.68029,-73.80373 -47.306771,0 -47.306771,73.54522 -0.38776,73.80373 5.04088,5.04088 12.40833,10.21102 19.64652,10.21102 3.6191,0 7.75521,-0.90477 9.95252,-4.00685 z m -29.21128,-70.18463 c 26.49696,0 26.49696,70.70164 0.2585,71.21865 -8.78923,-8.91848 -20.29279,-29.08202 -20.29279,-40.19782 0.12925,-16.15669 7.75521,-31.02083 20.03429,-31.02083 z m -1.6803,71.0894 c -11.24505,-1.16328 -17.31996,-15.89817 -18.22474,-31.53784 2.84358,8.27222 9.69401,22.23159 18.22474,31.53784 z"
           style="font-style:normal;font-variant:normal;font-weight:bold;font-stretch:normal;font-family:'Monea Alegante';-inkscape-font-specification:'Monea Alegante Bold';letter-spacing:0px;fill:#cca447;fill-opacity:1;stroke:none;stroke-width:1.92881179;stroke-miterlimit:4;stroke-dasharray:none;stroke-opacity:1"
           id="path100" />
        <path
           d="m 177.24549,219.30704 c 0,7.88446 6.07491,8.91848 11.50356,8.91848 h 2.71432 v -23.91189 h 7.75521 c 22.61936,-0.12925 33.99366,-11.89131 33.99366,-23.65338 0,-11.89132 -11.3743,-23.65338 -33.99366,-23.65338 h -21.97309 z m 14.21788,-61.00764 h 7.10894 c 12.53759,0 19.12952,10.85729 19.12952,22.36085 0,11.1158 -6.33342,22.4901 -19.12952,22.36085 h -7.10894 z"
           style="font-style:normal;font-variant:normal;font-weight:bold;font-stretch:normal;font-family:'Monea Alegante';-inkscape-font-specification:'Monea Alegante Bold';letter-spacing:0px;fill:#cca447;fill-opacity:1;stroke:none;stroke-width:1.92881179;stroke-miterlimit:4;stroke-dasharray:none;stroke-opacity:1"
           id="path102" />
        <path
           d="m 241.11488,219.30704 c 0,7.88446 6.07491,8.91848 11.3743,8.91848 h 38.25903 v -8.91848 c -4.13611,5.68715 -13.83012,7.62595 -22.61936,7.62595 h -12.79609 v -61.00763 c 0,-8.01372 -6.07492,-9.04775 -11.37431,-8.91849 h -2.84357 z"
           style="font-style:normal;font-variant:normal;font-weight:bold;font-stretch:normal;font-family:'Monea Alegante';-inkscape-font-specification:'Monea Alegante Bold';letter-spacing:0px;fill:#cca447;fill-opacity:1;stroke:none;stroke-width:1.92881179;stroke-miterlimit:4;stroke-dasharray:none;stroke-opacity:1"
           id="path104" />
      </g>
      <g
         id="g7324-8-6-7-3-5"
         transform="matrix(0.19112067,0,0,0.19112067,-85.582045,-229.0345)"
         style="fill:#cca447;fill-opacity:1;stroke:none;stroke-width:7.87303829;stroke-miterlimit:4;stroke-dasharray:none;stroke-opacity:1">
        <g
           aria-label="20"
           style="font-style:normal;font-variant:normal;font-weight:normal;font-stretch:normal;font-size:312.87838745px;line-height:1.25;font-family:Bocklin;-inkscape-font-specification:Bocklin;letter-spacing:-33.7714119px;word-spacing:0px;fill:#cca447;fill-opacity:1;stroke:none;stroke-width:8.86278725;stroke-miterlimit:4;stroke-dasharray:none;stroke-opacity:1"
           id="text7278-7-6-9-5-0-60">
          <path
             d="m 2054.8413,2151.557 c 0,-40.0484 122.3355,-28.159 122.3355,-96.3665 0,-31.9136 -29.7235,-44.7416 -57.5697,-44.7416 -20.3371,0 -41.9257,5.9446 -55.6923,15.0181 v 25.0303 c 12.5151,-25.0303 36.2939,-36.9197 55.6923,-36.9197 15.9568,0 29.0977,8.1349 29.0977,23.4659 0,56.3181 -96.9923,61.6371 -96.9923,113.8878 0,20.0242 13.7667,35.0423 40.9871,35.0423 h 84.4772 v -2.1901 c -0.6258,-22.5273 -22.8402,-32.2265 -35.6682,-32.2265 z"
             style="font-style:normal;font-variant:normal;font-weight:bold;font-stretch:normal;font-family:'Monea Alegante';-inkscape-font-specification:'Monea Alegante Bold';letter-spacing:0px;fill:#cca447;fill-opacity:1;stroke:none;stroke-width:8.86278725;stroke-miterlimit:4;stroke-dasharray:none;stroke-opacity:1"
             id="path107" />
          <path
             d="m 2271.0061,2189.1024 c 98.5566,0 98.8695,-178.6535 0,-178.6535 -99.1825,0 -98.8696,178.6535 0,178.6535 z m 0,-175.5248 c 48.809,0 48.4961,172.396 0,172.396 -48.8091,0 -49.122,-172.396 0,-172.396 z"
             style="font-style:normal;font-variant:normal;font-weight:bold;font-stretch:normal;font-family:'Monea Alegante';-inkscape-font-specification:'Monea Alegante Bold';letter-spacing:0px;fill:#cca447;fill-opacity:1;stroke:none;stroke-width:8.86278725;stroke-miterlimit:4;stroke-dasharray:none;stroke-opacity:1"
             id="path109" />
        </g>
        <g
           aria-label="23"
           style="font-style:normal;font-variant:normal;font-weight:normal;font-stretch:normal;font-size:312.87838745px;line-height:1.25;font-family:Bocklin;-inkscape-font-specification:Bocklin;letter-spacing:13.71711636px;word-spacing:0px;fill:#cca447;fill-opacity:1;stroke:none;stroke-width:8.86278725;stroke-miterlimit:4;stroke-dasharray:none;stroke-opacity:1"
           id="text7278-7-1-9-3-5-2-69">
          <path
             d="m 2063.2808,2356.5604 c 0,-40.0484 122.3354,-28.159 122.3354,-96.3665 0,-31.9136 -29.7234,-44.7416 -57.5696,-44.7416 -20.3371,0 -41.9257,5.9447 -55.6924,15.0181 v 25.0303 c 12.5152,-25.0303 36.2939,-36.9196 55.6924,-36.9196 15.9568,0 29.0977,8.1348 29.0977,23.4658 0,56.3181 -96.9923,61.6371 -96.9923,113.8878 0,20.0242 13.7666,35.0424 40.987,35.0424 h 84.4772 v -2.1902 c -0.6257,-22.5272 -22.8401,-32.2265 -35.6681,-32.2265 z"
             style="font-style:normal;font-variant:normal;font-weight:bold;font-stretch:normal;font-family:'Monea Alegante';-inkscape-font-specification:'Monea Alegante Bold';letter-spacing:0px;fill:#cca447;fill-opacity:1;stroke:none;stroke-width:8.86278725;stroke-miterlimit:4;stroke-dasharray:none;stroke-opacity:1"
             id="path112" />
          <path
             d="m 2257.544,2292.4204 c 27.8462,0 41.3,27.2204 41.3,51.6249 0,23.7788 -12.5152,46.9318 -38.4841,46.9318 -20.3371,0 -43.8029,-14.0796 -55.3794,-36.9197 v 25.0303 c 14.3924,10.0121 34.4166,15.0181 56.9438,15.0181 33.1651,0 74.778,-15.0181 74.778,-54.7537 0,-23.4659 -18.4599,-46.6189 -51.625,-49.4348 25.3432,-5.6318 39.4227,-20.9628 39.4227,-35.981 0,-30.9749 -40.6742,-38.484 -64.7658,-38.484 -23.4659,0 -41.9257,6.8833 -54.7537,15.0181 v 25.0303 c 10.9507,-21.5886 31.9135,-36.6068 51.312,-36.6068 20.9629,0 30.3492,19.7114 30.3492,36.6068 0,18.147 -10.6379,33.1651 -29.4106,33.7909 h -10.0121 v 3.1288 z"
             style="font-style:normal;font-variant:normal;font-weight:bold;font-stretch:normal;font-family:'Monea Alegante';-inkscape-font-specification:'Monea Alegante Bold';letter-spacing:0px;fill:#cca447;fill-opacity:1;stroke:none;stroke-width:8.86278725;stroke-miterlimit:4;stroke-dasharray:none;stroke-opacity:1"
             id="path114" />
        </g>
      </g>
      <path
         style="fill:#006680;fill-opacity:1;stroke:none;stroke-width:0.26458332px;stroke-linecap:butt;stroke-linejoin:miter;stroke-miterlimit:4;stroke-dasharray:none;stroke-opacity:1"
         d="m 233.50625,1.4541342 c -0.24209,0.18161 -1.48,1.14096 -1.87078,1.33636 -0.25201,0.12602 -0.56031,0.12232 -0.8019,0.26728 -0.21601,0.12964 -0.34091,0.37322 -0.53451,0.53453 -0.3129,0.26072 -1.42899,1.08387 -1.8709,1.33636 -0.34589,0.19767 -0.71269,0.35637 -1.06909,0.53454 -0.35631,0.26723 -0.69131,0.5657 -1.06902,0.80182 -0.3379,0.21114 -0.74489,0.30292 -1.06909,0.53451 -0.30761,0.21971 -0.4994,0.57505 -0.80181,0.80182 -0.41559,0.31168 -0.9307,0.47728 -1.33639,0.80182 -0.4919,0.39351 -0.89091,0.89088 -1.3363,1.3363 -2.15119,2.1512298 1.01851,-1.06685 -2.1382,2.4054398 -0.8475,0.93226 -1.8661,1.70479 -2.6727,2.67274 -0.49059,0.5887 -0.9347,1.21817 -1.3363,1.87087 -0.31321,0.50898 -0.48099,1.09942 -0.80181,1.60358 -0.30629,0.48131 -0.7861,0.84106 -1.06909,1.33639 -0.045,0.0784 -1.72859,3.87773 -1.8709,4.2763 -0.21811,0.61079 -0.35631,1.24725 -0.53451,1.8709 -0.1782,0.62359 -0.3887,1.23891 -0.5346,1.87089 -0.1218,0.52803 -0.096,1.0895 -0.26719,1.60359 -0.189,0.56697 -0.6129,1.03666 -0.8019,1.60364 -0.1713,0.51411 -0.082,1.09431 -0.26721,1.60361 -0.17749,0.48821 -0.6375,0.84352 -0.80179,1.33636 -0.1992,0.59759 -0.1015,1.26312 -0.2673,1.87087 -0.10481,0.38438 -0.3727,0.70498 -0.5345,1.06907 -0.19491,0.43842 -0.32,0.90726 -0.53461,1.33636 -0.70989,1.41989 -0.50799,0.21434 -1.33629,1.87089 -0.16431,0.32854 -0.12261,0.73144 -0.2673,1.06908 -0.17731,0.41362 -1.17991,1.59708 -1.3363,1.87087 -0.13981,0.24461 -0.1563,0.54287 -0.2673,0.80182 -0.15701,0.36621 -0.3564,0.71271 -0.53451,1.06907 -0.089,0.1782 -0.14779,0.37518 -0.2673,0.53454 -0.1512,0.20156 -0.40489,0.31848 -0.53459,0.53454 -0.1449,0.24159 -0.1626,0.5402 -0.2672,0.80182 -0.074,0.18497 -0.1782,0.35634 -0.2673,0.53454 -0.089,0.17817 -0.1477,0.37512 -0.2673,0.53453 -0.1511,0.20159 -0.4409,0.30057 -0.53449,0.53452 -0.099,0.24817 0.099,0.55369 0,0.80182 -0.094,0.23397 -0.40491,0.31847 -0.53451,0.53456 -0.145,0.24156 -0.1627,0.5402 -0.2673,0.80179 -0.074,0.18497 -0.1782,0.35637 -0.2673,0.53454 -0.17811,0.26728 -0.40801,0.50657 -0.53451,0.80179 -0.051,0.12005 -0.49909,2.08505 -0.53449,2.13818 -0.1782,0.26726 -0.6237,0.26726 -0.8019,0.53454 -1.8664,2.79969 0.73811,-0.0932 -0.53451,1.60361 -0.15119,0.20159 -0.38329,0.33293 -0.5346,0.53454 -0.21478,0.28649 -0.74709,1.81044 -0.80179,2.13815 -0.044,0.26366 0.044,0.53816 0,0.80179 -0.046,0.27792 -0.22089,0.52396 -0.2672,0.80185 -0.044,0.26363 0,0.53454 0,0.80179 -0.089,0.26729 -0.21199,0.52555 -0.2673,0.80182 -0.035,0.17471 0,0.35637 0,0.53454 0,0.53454 0,1.06905 0,1.60361 0,0.29946 -0.045,2.26881 0,2.40544 0.08,0.23905 0.3771,0.33774 0.5345,0.53451 0.2007,0.25085 0.3075,0.5747 0.5346,0.80182 0.3315,0.33152 1.4156,1.03283 1.8709,1.33636 0.2673,0.17814 0.53451,0.35634 0.80179,0.53453 0.2673,0.17817 0.50101,0.42175 0.80181,0.53454 0.4253,0.15952 0.8929,0.16873 1.3363,0.26723 0.3586,0.0797 0.71051,0.18759 1.06911,0.26728 0.44349,0.0985 0.90119,0.13677 1.33639,0.26728 0.45949,0.13788 0.86589,0.44046 1.3363,0.53457 0.4368,0.0874 0.8909,0 1.33641,0 0.71269,0 1.42679,-0.0445 2.13808,0 0.71692,0.0448 1.4215,0.2195 2.1382,0.26725 0.62222,0.0415 1.24861,-0.0415 1.8709,0 0.71661,0.0478 1.4254,0.17823 2.13811,0.26729 0.80181,0 1.60499,-0.0471 2.40541,0 0.7171,0.0422 1.421,0.22738 2.1382,0.26725 0.88949,0.0494 1.7818,0 2.67268,0 0.80181,0 1.6036,0 2.40541,0 3.8309,0 7.6617,0 11.4926,0 3.0135,0 -0.67639,-0.0966 3.7418,0.53454 0.44099,0.063 0.89089,0 1.3363,0 0.3564,0 0.71271,0 1.06911,0 0.44548,0 0.89439,-0.0553 1.33639,0 0.2795,0.0349 0.5239,0.22095 0.80181,0.26728 0.26359,0.0439 0.53449,0 0.80179,0 1.4111,0 0.727,0 2.1381,0 0.80179,0 1.6037,0 2.40551,0 0.35628,0 0.7163,0.0504 1.06899,0 0.2789,-0.0398 0.524,-0.22095 0.80181,-0.26728 0.26369,-0.0439 0.53978,0.0524 0.80179,0 0.1954,-0.0391 0.3496,-0.19328 0.5346,-0.26726 0.26161,-0.10464 0.53451,-0.17819 0.80179,-0.26728 0.2673,-0.0891 0.52392,-0.22095 0.80181,-0.26725 0.26359,-0.0439 0.53819,0.0439 0.80181,0 0.27789,-0.0463 0.53458,-0.17823 0.80179,-0.26729 0.2673,-0.0891 0.5403,-0.16266 0.80181,-0.26725 0.185,-0.074 0.3456,-0.20429 0.5346,-0.26728 2.27099,-0.757 0.0161,0.0419 1.87078,-0.26729 0.65851,-0.10972 1.28281,-0.5077 1.87102,-0.80179 0.17808,-0.0891 0.36869,-0.15679 0.53449,-0.26728 0.61401,-0.40934 -0.1146,-0.15264 0.5345,-0.80179 0.1409,-0.1409 0.39369,-0.12642 0.53461,-0.26729 0.14079,-0.14089 0.14769,-0.37515 0.26718,-0.53453 0.15122,-0.20159 0.38341,-0.33296 0.5346,-0.53454 0.11951,-0.15936 0.16471,-0.3637 0.26721,-0.53454 0.3306,-0.55089 0.73861,-1.05275 1.06909,-1.60361 0.37901,-0.63172 0.44092,-1.14906 0.80181,-1.8709 0.1437,-0.28731 0.3909,-0.51448 0.5346,-0.80179 0.1917,-0.38344 0.44891,-1.52837 0.53449,-1.8709 0.089,-0.35636 0.2217,-0.70458 0.2673,-1.06907 0.044,-0.35362 -0.05,-0.71631 0,-1.06908 0.04,-0.27889 0.22742,-0.52292 0.26721,-0.80182 0.05,-0.35274 0,-0.71271 0,-1.06907 0,-0.62365 0,-1.24725 0,-1.87087 0,-0.89093 0,-1.78181 0,-2.67272 0,-0.26723 0.038,-0.53721 0,-0.80182 -0.052,-0.36364 -0.2153,-0.70543 -0.26721,-1.06907 -0.038,-0.26459 0.044,-0.53816 0,-0.8018 -0.046,-0.27786 -0.17818,-0.53453 -0.2673,-0.80181 -0.17818,-0.53454 -0.35638,-1.06911 -0.53449,-1.60364 -0.1782,-0.53449 -0.3564,-1.06905 -0.5346,-1.60359 -0.089,-0.26726 -0.1563,-0.54285 -0.26721,-0.80179 -0.69229,-1.61534 -0.3022,-0.5288 -1.06909,-1.8709 -2.2246,-3.89313 0.6974,1.1276 -0.80181,-1.87089 -0.1437,-0.28729 -0.408,-0.50655 -0.5346,-0.80182 -0.1447,-0.33761 -0.12249,-0.73147 -0.26718,-1.06908 -0.25311,-0.59047 -0.7818,-1.02899 -1.06911,-1.60361 -0.32309,-0.64614 -0.2777,-1.18581 -0.53449,-1.87087 -1.6647,-4.43908 0.4817,1.74776 -1.06911,-1.8709 -0.1447,-0.33763 -0.1511,-0.72059 -0.2673,-1.0691 -0.063,-0.18899 -0.1782,-0.35634 -0.2673,-0.53451 -0.17821,-0.35637 -0.3776,-0.70289 -0.53449,-1.0691 -0.22201,-0.51787 -0.3564,-1.06905 -0.53461,-1.60362 -0.1781,-0.53453 -0.32521,-1.08045 -0.5345,-1.60358 -0.074,-0.18497 -0.20429,-0.34557 -0.26731,-0.53454 -0.11608,-0.34851 -0.16629,-0.71591 -0.26718,-1.0691 -0.23122,-0.8092 -0.53571,-1.607 -0.80181,-2.40543 -0.1782,-0.53454 -0.3126,-1.08572 -0.5346,-1.60359 -0.15689,-0.36621 -0.3776,-0.70289 -0.53449,-1.06908 -0.22201,-0.51792 -0.28261,-1.09963 -0.5346,-1.60366 -0.14361,-0.28726 -0.39081,-0.51448 -0.53451,-0.80177 -0.12601,-0.25199 -0.1223,-0.56023 -0.2673,-0.80185 -0.1296,-0.21608 -0.40479,-0.31842 -0.53451,-0.53453 -0.14498,-0.24154 -0.14129,-0.54981 -0.26728,-0.80177 -0.62751,-1.25502 -0.40172,-0.33631 -0.80181,-1.33636 -0.21731,-0.54332 -0.22111,-0.86627 -0.53451,-1.33636 -0.07,-0.10482 -0.19739,-0.16245 -0.2673,-0.26728 -0.11048,-0.16573 -0.1477,-0.37518 -0.26728,-0.53456 -0.1511,-0.20153 -0.38331,-0.33293 -0.53451,-0.53451 -0.30969,-0.41286 -0.50509,-1.15853 -0.80181,-1.60359 -0.07,-0.10485 -0.1782,-0.17822 -0.2673,-0.26728 -0.17808,-0.26728 -0.36928,-0.52639 -0.53448,-0.80182 -0.1025,-0.17082 -0.1568,-0.3687798 -0.26731,-0.5345698 -0.07,-0.10482 -0.19741,-0.1624 -0.2672,-0.2672 -0.11051,-0.16579 -0.1568,-0.36883 -0.2673,-0.53456 -0.13981,-0.20968 -0.3948,-0.32491 -0.53461,-0.53454 -0.11049,-0.16579 -0.12638,-0.3937 -0.26718,-0.53456 -0.14092,-0.14084 -0.36881,-0.15674 -0.53461,-0.26726 -0.10481,-0.0699 -0.16239,-0.19738 -0.2673,-0.26728 -0.1657,-0.11052 -0.37509,-0.14775 -0.53451,-0.26726 -0.40318,-0.30239 -0.6659,-0.76668 -1.06909,-1.0691 -0.15929,-0.11951 -0.37511,-0.14772 -0.5345,-0.26728 -0.30239,-0.22675 -0.4873,-0.59211 -0.80179,-0.80177 -0.1658,-0.11051 -0.36881,-0.15676 -0.53451,-0.26728 -0.10491,-0.0699 -0.16249,-0.19738 -0.2673,-0.26726 -0.1658,-0.11051 -0.36881,-0.15676 -0.5346,-0.26728 -0.10479,-0.0699 -0.1624,-0.19738 -0.26719,-0.26725 -0.16582,-0.11052 -0.36881,-0.15677 -0.5346,-0.26729 -0.10481,-0.0699 -0.16242,-0.19737 -0.26721,-0.26725 -0.1658,-0.11052 -0.3564,-0.1782 -0.5346,-0.26728 -0.1782,-0.0891 -0.34551,-0.20425 -0.53451,-0.26728 -0.16899,-0.0563 -0.37519,0.0797 -0.53458,0 -0.22532,-0.11269 -0.29542,-0.45483 -0.53451,-0.53455 -0.2536,-0.0845 -0.53451,0 -0.80181,0 -0.44539,0 -0.89089,0 -1.33629,0 -0.62371,0 -1.2473,0 -1.8709,0 -0.089,0 -0.20429,0.063 -0.2673,0 -0.063,-0.063 0.063,-0.20425 0,-0.26722 -0.065,-0.0649 -0.91991,0.0597 -1.0691,0 -0.36989,-0.14801 -0.7127,-0.3564 -1.06911,-0.53459 z"
         id="path92302-2-4-2-9-96"
         inkscape:connector-curvature="0" />
      <path
         style="opacity:1;fill:#006680;fill-opacity:1;stroke:none;stroke-width:1.76388896;stroke-linecap:round;stroke-linejoin:round;stroke-miterlimit:4;stroke-dasharray:none;stroke-opacity:1"
         d="m 120.22967,-105.8235 c -10.72331,0 -19.35602,8.633284 -19.35602,19.356564 V 129.97913 c 0,0.66598 0.033,1.32416 0.098,1.97247 1.07601,-9.69026 9.24581,-17.17892 19.2323,-17.17892 10.0574,0 18.2757,7.59399 19.2577,17.38408 0.079,-0.71491 0.12431,-1.44087 0.12431,-2.17763 V -86.466936 c 0,-10.72328 -8.6333,-19.356564 -19.3567,-19.356564 z"
         id="rect5741-3-3-9-3-8"
         inkscape:connector-curvature="0"
         sodipodi:nodetypes="ssscscsss" />
      <path
         style="opacity:1;fill:#006680;fill-opacity:1;stroke:none;stroke-width:1.76388896;stroke-linejoin:round;stroke-miterlimit:4;stroke-dasharray:none;stroke-opacity:1"
         d="m 154.55205,-85.638136 c -0.043,0.52623 -0.07,1.05669 -0.07,1.59423 V 129.82824 c 0,0.66604 0.033,1.32421 0.098,1.97252 1.076,-9.69026 9.24589,-17.17881 19.2324,-17.17881 10.05731,0 18.2757,7.59386 19.2577,17.38397 0.079,-0.7149 0.1241,-1.44092 0.1241,-2.17768 V -70.261276 c -13.51281,-3.36714 -26.51032,-8.53927 -38.6421,-15.37686 z"
         id="rect5741-5-4-7-1-0-5"
         inkscape:connector-curvature="0"
         sodipodi:nodetypes="csscscscc" />
      <path
         style="opacity:1;fill:#006680;fill-opacity:1;stroke:none;stroke-width:1.76388896;stroke-linejoin:round;stroke-miterlimit:4;stroke-dasharray:none;stroke-opacity:1"
         d="m 212.51115,-66.779356 c -0.085,0.73898 -0.13329,1.48961 -0.13329,2.25208 V 129.3412 c 0,0.666 0.033,1.32421 0.098,1.97249 1.07601,-9.69023 9.2459,-17.17879 19.23242,-17.17879 10.05728,0 18.27568,7.59386 19.25779,17.38397 0.079,-0.7149 0.1245,-1.44089 0.1245,-2.17767 V -64.527276 c 0,-0.75334 -0.047,-1.49527 -0.13019,-2.22571 -6.28602,0.83946 -12.61762,1.29245 -18.95912,1.3565 -6.51929,-0.0507 -13.029,-0.51263 -19.49019,-1.38287 z"
         id="rect5741-9-6-1-2-2-9"
         inkscape:connector-curvature="0"
         sodipodi:nodetypes="csscscssccc" />
      <path
         style="opacity:1;fill:#006680;fill-opacity:1;stroke:none;stroke-width:1.76388896;stroke-linejoin:round;stroke-miterlimit:4;stroke-dasharray:none;stroke-opacity:1"
         d="m 307.59905,-85.889286 c -12.13688,6.93217 -25.1553,12.19158 -38.70149,15.63524 V 129.38689 c 0,0.66598 0.034,1.32421 0.099,1.97249 1.07589,-9.69028 9.2459,-17.17881 19.2324,-17.17881 10.0573,0 18.27511,7.59383 19.2572,17.38395 0.079,-0.71491 0.1245,-1.44087 0.1245,-2.17763 V -85.435586 c 0,-0.15217 -0.01,-0.30233 -0.0111,-0.4537 z"
         id="rect5741-2-6-3-7-7-8"
         inkscape:connector-curvature="0"
         sodipodi:nodetypes="ccscscssc" />
      <path
         style="opacity:1;fill:#006680;fill-opacity:1;stroke:none;stroke-width:1.76388896;stroke-linejoin:round;stroke-miterlimit:4;stroke-dasharray:none;stroke-opacity:1"
         d="m 341.43697,-105.01982 c -10.7233,0 -19.35611,8.633234 -19.35611,19.356574 V 129.56511 c 0,0.66601 0.033,1.32419 0.098,1.9725 1.07599,-9.69026 9.2459,-17.17892 19.23239,-17.17892 10.05731,0 18.27559,7.59399 19.2577,17.38408 0.079,-0.71488 0.12419,-1.44087 0.12419,-2.17766 V -85.663246 c 0,-10.72334 -8.63328,-19.356574 -19.35658,-19.356574 z"
         id="rect5741-28-3-9-0-9-70"
         inkscape:connector-curvature="0"
         sodipodi:nodetypes="ssscscsss" />
      <circle
         style="opacity:0.97000002;fill:#006680;fill-opacity:1;stroke:none;stroke-width:1.76388896;stroke-linejoin:round;stroke-miterlimit:4;stroke-dasharray:none;stroke-opacity:1"
         id="path7332-2-6-9-9-7"
         cx="120.02448"
         cy="133.58942"
         r="7.6056504" />
      <circle
         style="opacity:1;fill:#006680;fill-opacity:1;stroke:none;stroke-width:1.76388896;stroke-miterlimit:4;stroke-dasharray:none;stroke-opacity:1"
         id="path7332-3-1-4-3-5-8"
         cx="173.83792"
         cy="133.73276"
         r="7.6056504" />
      <circle
         style="opacity:1;fill:#006680;fill-opacity:1;stroke:none;stroke-width:1.76388896;stroke-linejoin:round;stroke-miterlimit:4;stroke-dasharray:none;stroke-opacity:1"
         id="path7332-5-7-2-6-2-5"
         cx="232.03864"
         cy="133.2951"
         r="7.6056504" />
      <path
         inkscape:connector-curvature="0"
         id="path92084-3-9-2-3-8"
         d="m 231.93984,-261.07432 v 0 c -0.3928,0 -1.03108,6.98678 -1.41801,15.52618 l -0.70381,15.52567 -3.73724,3.59098 c -2.05561,1.97501 -3.73724,4.49453 -3.73724,5.59863 0,1.10414 -0.47805,2.77228 -1.06196,3.70726 -0.8127,1.30123 -0.58748,3.29235 0.95964,8.48734 1.7032,5.71926 2.02158,9.30534 2.02158,22.79396 0,38.85876 -5.85073,101.674024 -14.04152,150.758254 -1.8496,11.08348 -3.6571,20.44502 -4.01682,20.80337 -0.35978,0.35819 -2.04949,0.79026 -3.75481,0.95964 l -3.10058,0.30798 2.83962,4.3511502 2.83911,4.35065 -2.79622,10.52338 c -2.54648,9.5831498 -5.43025,18.4867298 -9.03769,27.7802198 -2.6e-4,0 0,0.003 0,0.003 -0.18134,0.4672 -0.36737,0.93737 -0.55242,1.40663 -0.15174,0.38481 -0.30356,0.76962 -0.45786,1.15602 -0.17169,0.43 -0.34494,0.8613 -0.51986,1.29347 -0.18155,0.44844 -0.36573,0.89876 -0.55086,1.34977 -0.16618,0.40497 -0.33163,0.80926 -0.50075,1.21648 -0.32657,0.78605 -0.65738,1.57559 -0.99528,2.3709 -0.006,0.013 -0.0111,0.0254 -0.0164,0.0383 -0.1061,0.24969 -0.21574,0.50273 -0.32298,0.75343 -0.28051,0.65555 -0.56367,1.31331 -0.85214,1.97612 -0.1319,0.30308 -0.26586,0.60788 -0.39947,0.9126 -0.269,0.61338 -0.54144,1.23073 -0.81751,1.85105 -0.14288,0.32104 -0.28517,0.64124 -0.42995,0.96427 -0.40291,0.89871 -0.81066,1.80219 -1.22888,2.71714 l -3.39926,7.43728 h -4.37288 -2.6825 -1.69035 v 9.14569 9.1457 l -17.39482,29.958366 c -0.56909,0.98015 -0.96562,1.65976 -1.52701,2.6262 v 19.51612 c 0,0.66601 0.0332,1.32413 0.0982,1.97249 1.07601,-9.69028 9.24592,-17.17878 19.2324,-17.17878 3.5619,0 6.89097,0.95623 9.75186,2.62154 1.27674,-1.90167 2.69449,-3.70618 4.24574,-5.40845 0.13176,-0.14454 0.26474,-0.28795 0.39843,-0.43098 0.0606,-0.0649 0.12137,-0.1297 0.18241,-0.19431 0.13748,-0.14544 0.27598,-0.29022 0.41547,-0.43408 0.0525,-0.0542 0.10533,-0.10829 0.15814,-0.16227 0.15166,-0.15494 0.30438,-0.3089 0.45837,-0.46199 0.042,-0.0418 0.0839,-0.0835 0.1261,-0.12506 0.16356,-0.1614 0.32888,-0.32176 0.49506,-0.4811 0.0299,-0.0286 0.0599,-0.0572 0.0899,-0.0858 0.17735,-0.16918 0.3556,-0.33759 0.53589,-0.50438 0.0201,-0.0188 0.0407,-0.0371 0.061,-0.0558 0.18941,-0.17465 0.37991,-0.34838 0.57256,-0.52038 0.0101,-0.009 0.0198,-0.018 0.03,-0.0269 0.20103,-0.17921 0.40372,-0.35698 0.60822,-0.5333 0,0 0.003,-0.003 0.003,-0.003 5.31349,-4.58036 11.79499,-8.181416 19.28873,-10.619506 6.52732,-2.12362 9.57178,-2.53396 19.26756,-2.59675 16.34387,-0.10538 27.88669,3.53139 38.39716,12.294866 0,0 0.003,0.003 0.003,0.003 0.26099,0.21762 0.52152,0.43931 0.78134,0.66302 0.0855,0.0737 0.1709,0.14774 0.25633,0.22219 0.21876,0.19032 0.43672,0.38293 0.65474,0.57775 0.1379,0.1235 0.27575,0.24879 0.41341,0.37414 0.17584,0.15981 0.35169,0.31928 0.52708,0.48213 0.32234,0.29977 0.64426,0.60264 0.96533,0.91263 0.24056,0.23225 0.47657,0.46603 0.71107,0.70019 0.12382,0.12385 0.24622,0.24823 0.36846,0.37259 1.78284,1.81284 3.38989,3.68469 4.83018,5.64102 2.87591,-1.69072 6.22908,-2.6634 9.82009,-2.6634 10.05729,0 18.27522,7.59383 19.25722,17.38394 0.079,-0.7149 0.12454,-1.44089 0.12454,-2.17765 V 107.40025 L 290.4769,77.797904 v -9.12863 -9.12813 l -2.01485,-0.13125 c -3e-5,-1.6e-4 0,0 0,0 l -2.47841,-0.16122 -4.49378,-0.29249 -5.92678,-13.91388 c -5e-5,-1.6e-4 8e-5,0 0,0 -0.0167,-0.0389 -0.032,-0.0759 -0.0486,-0.11473 -0.55505,-1.30389 -1.08694,-2.5714 -1.60714,-3.82045 -0.12358,-0.2967 -0.24675,-0.5924 -0.36846,-0.88625 -0.52837,-1.27584 -1.04452,-2.53238 -1.53892,-3.75843 -0.0217,-0.0539 -0.0419,-0.10589 -0.0636,-0.15968 -0.49369,-1.22578 -0.96869,-2.42588 -1.43092,-3.60907 -0.0986,-0.25228 -0.19786,-0.50551 -0.29509,-0.75602 -0.15288,-0.3941 -0.30461,-0.78669 -0.45424,-1.17668 -0.15851,-0.41315 -0.31377,-0.82262 -0.46868,-1.23145 -0.12811,-0.33811 -0.25823,-0.67853 -0.38396,-1.01389 -0.003,-0.004 -0.003,-0.009 -0.005,-0.0135 -3.1147,-8.30837 -5.50847,-15.80229 -7.65381,-23.8187198 l -2.40295,-8.97929 2.84477,-4.35941 2.8448,-4.3589102 -3.56928,-0.47955 -3.56931,-0.48009 -2.17299,-11.99512 c -8.269,-45.64568 -14.19765,-103.700904 -15.30655,-149.886994 -0.57031,-23.7514 -0.51083,-24.9415 1.60507,-32.37269 1.88942,-6.63578 2.01054,-7.93856 0.86765,-9.31572 -0.73081,-0.88056 -1.19055,-2.41863 -1.02113,-3.41786 0.18841,-1.11183 -1.17224,-3.29666 -3.50623,-5.63068 l -3.81373,-3.81423 -0.69507,-15.33342 c -0.38194,-8.43358 -1.01572,-15.33326 -1.40844,-15.33326 z M 230.9983,15.293824 c 6.3234,0 11.49696,0.25014 11.49696,0.55552 0,0.30538 2.15927,9.81387 4.79817,21.12999 2.639,11.31615 4.79816,20.99842 4.79816,21.516 0,0.5874 -8.1567,0.94102 -21.6943,0.94102 -17.34121,0 -21.5983,-0.24932 -21.21781,-1.24074 1.03892,-2.70751 6.36789,-23.67677 7.85429,-30.90664 0.8681,-4.22235 1.77874,-8.64809 2.02314,-9.83559 0.43122,-2.09431 0.78996,-2.15956 11.94139,-2.15956 z m 57.06784,110.549316 a 7.6056501,7.6056501 0 0 0 -3.96256,1.12191 c 1.3113,3.16497 2.34868,6.56307 3.14349,10.26139 l 0.82267,3.82818 a 7.6056501,7.6056501 0 0 0 7.60214,-7.60574 7.6056501,7.6056501 0 0 0 -7.60574,-7.60574 z m -114.22816,0.28424 a 7.6056501,7.6056501 0 0 0 -7.60574,7.60571 7.6056501,7.6056501 0 0 0 7.60574,7.60574 7.6056501,7.6056501 0 0 0 1.60351,-0.18087 l 0.32917,-2.63289 c 0.47799,-3.82604 1.34416,-7.47043 2.57299,-10.90891 a 7.6056501,7.6056501 0 0 0 -4.50567,-1.48878 z"
         style="fill:#ffffff;fill-opacity:1;stroke:none;stroke-width:0.95961112;stroke-miterlimit:4;stroke-dasharray:none;stroke-opacity:1" />
      <circle
         style="opacity:1;fill:#006680;fill-opacity:1;stroke:none;stroke-width:1.76388896;stroke-miterlimit:4;stroke-dasharray:none;stroke-opacity:1"
         id="path7332-9-6-0-0-0-8"
         cx="288.06622"
         cy="133.44888"
         r="7.6056504" />
      <circle
         style="opacity:1;fill:#006680;fill-opacity:1;stroke:none;stroke-width:1.76388896;stroke-linejoin:round;stroke-miterlimit:4;stroke-dasharray:none;stroke-opacity:1"
         id="path7332-4-3-2-6-8-7"
         cx="341.62045"
         cy="133.27774"
         r="7.6056504" />
      <path
         inkscape:connector-curvature="0"
         id="path92084-3-9-2-3-8-5"
         d="m 231.93984,-261.07432 c -0.3928,0 -1.03108,6.98678 -1.41801,15.52618 l -0.70381,15.52567 -3.73724,3.591 c -2.05561,1.97501 -3.73724,4.49453 -3.73724,5.59864 0,1.10411 -0.47805,2.77228 -1.06196,3.70726 -0.8127,1.30122 -0.58748,3.29234 0.95964,8.48733 1.7032,5.71926 2.02158,9.30532 2.02158,22.79396 0,38.85877 -5.85073,101.674004 -14.04152,150.758234 -1.8496,11.08348 -3.6571,20.44504 -4.01682,20.8034 -0.35976,0.35816 -2.04949,0.79023 -3.75481,0.95961 l -3.10058,0.308 2.83962,4.3511602 2.83911,4.35062 -2.79622,10.5234 c -2.54648,9.5831598 -5.43025,18.4867298 -9.03769,27.7802198 v 0.003 c -0.18134,0.4672 -0.36735,0.93736 -0.55242,1.40663 -0.15174,0.38481 -0.30356,0.76962 -0.45784,1.15602 -0.17171,0.43 -0.34493,0.86129 -0.51988,1.29347 -0.18155,0.44844 -0.36576,0.89876 -0.55086,1.34977 -0.16621,0.40497 -0.33163,0.80925 -0.50075,1.21647 -0.32657,0.78603 -0.65738,1.5756 -0.99528,2.37091 -0.006,0.013 -0.0111,0.0254 -0.0164,0.0383 -0.1061,0.24968 -0.21574,0.50273 -0.32298,0.75342 -0.28051,0.65556 -0.56367,1.31332 -0.85214,1.97612 -0.1319,0.30308 -0.26586,0.60788 -0.39947,0.9126 -0.269,0.61339 -0.54147,1.23074 -0.81751,1.85106 -0.1429,0.32104 -0.28519,0.64127 -0.42995,0.96427 -0.40293,0.89874 -0.81066,1.80218 -1.22888,2.71714 l -3.39926,7.43728 h -4.37288 -2.6825 -1.69035 v 9.14569 9.14569 l -17.39482,29.958376 c -0.56909,0.98015 -0.96565,1.65976 -1.52701,2.6262 v 19.51611 c 0,0.66601 0.0332,1.32414 0.0982,1.9725 1.07601,-9.69029 9.24592,-17.17879 19.2324,-17.17879 3.5619,0 6.89097,0.95621 9.75186,2.62155 1.27677,-1.90167 2.69449,-3.70618 4.24574,-5.40846 0.13176,-0.14454 0.26471,-0.28794 0.39843,-0.43098 0.0606,-0.0649 0.12137,-0.12969 0.18241,-0.19431 0.13748,-0.14544 0.27601,-0.29022 0.41547,-0.43407 0.0526,-0.0542 0.10533,-0.1083 0.15814,-0.16227 0.15166,-0.15494 0.30438,-0.3089 0.45837,-0.46199 0.042,-0.0417 0.0839,-0.0834 0.1261,-0.12507 0.16356,-0.16139 0.32888,-0.32176 0.49506,-0.48109 0.0299,-0.0287 0.0599,-0.0572 0.0899,-0.0858 0.17735,-0.1692 0.3556,-0.33758 0.53589,-0.50437 0.0201,-0.0188 0.0407,-0.0371 0.061,-0.0558 0.18941,-0.17468 0.37991,-0.34838 0.57256,-0.52039 0.0101,-0.009 0.0198,-0.018 0.03,-0.0269 0.20103,-0.1792 0.40372,-0.35697 0.60822,-0.53329 l 0.003,-0.003 c 5.31349,-4.58036 11.79499,-8.181416 19.28875,-10.619496 6.52733,-2.12362 9.57176,-2.53397 19.26754,-2.59675 16.34387,-0.10539 27.88666,3.53139 38.39716,12.294866 0,0 0.003,0.003 0.004,0.003 0.26101,0.21762 0.52155,0.43929 0.78137,0.663 0.0855,0.0737 0.17087,0.14777 0.2563,0.22222 0.21876,0.19031 0.43672,0.3829 0.65474,0.57774 0.1379,0.12348 0.27575,0.24877 0.41341,0.37412 0.17584,0.15984 0.35171,0.3193 0.5271,0.48215 0.32235,0.29978 0.64426,0.60262 0.96531,0.91261 0.24059,0.23225 0.47657,0.46606 0.71107,0.70022 0.12385,0.12385 0.24622,0.24823 0.36846,0.37258 1.78286,1.81285 3.38992,3.68467 4.8302,5.641 2.87592,-1.69074 6.22906,-2.6634 9.82007,-2.6634 10.05729,0 18.27522,7.59383 19.25722,17.38394 0.079,-0.7149 0.12454,-1.44089 0.12454,-2.17763 V 107.39991 L 290.47766,77.797584 v -9.12865 -9.12813 l -2.01488,-0.13125 -2.47841,-0.16122 -4.49376,-0.29249 -5.92677,-13.91388 c -0.0167,-0.0389 -0.032,-0.0759 -0.0486,-0.11473 -0.55504,-1.30389 -1.08696,-2.5714 -1.60713,-3.82042 -0.12359,-0.29673 -0.24675,-0.5924 -0.36846,-0.88625 -0.52837,-1.27585 -1.04452,-2.53238 -1.53892,-3.75843 -0.0217,-0.0539 -0.0419,-0.10589 -0.0636,-0.15968 -0.49369,-1.22579 -0.96869,-2.42591 -1.43092,-3.6091 -0.0986,-0.25228 -0.19783,-0.50551 -0.29506,-0.75602 -0.15288,-0.3941 -0.30462,-0.78666 -0.45424,-1.17668 -0.15851,-0.41312 -0.31377,-0.82262 -0.46871,-1.23143 -0.12811,-0.33813 -0.25821,-0.67855 -0.38396,-1.01391 -0.003,-0.004 -0.004,-0.009 -0.005,-0.0135 -3.1147,-8.30837 -5.50844,-15.80227 -7.65379,-23.8186898 l -2.40297,-8.9793 2.8448,-4.35943 2.8448,-4.3589102 -3.56931,-0.47955 -3.56928,-0.48006 -2.173,-11.99515 c -8.26899,-45.64568 -14.19765,-103.700884 -15.30657,-149.886964 -0.57028,-23.75141 -0.51083,-24.9415 1.60507,-32.3727 1.88944,-6.6358 2.01057,-7.93856 0.86765,-9.31571 -0.73081,-0.88059 -1.19055,-2.41864 -1.02111,-3.41789 0.18841,-1.11183 -1.17226,-3.29663 -3.50626,-5.63065 l -3.81373,-3.81426 -0.69503,-15.33342 c -0.38221,-8.43322 -1.01596,-15.33289 -1.40868,-15.33289 z m 0.15608,36.20141 2.02105,2.02107 c 0.89971,0.89974 1.54889,1.72704 1.87586,2.23036 -0.18433,2.33685 0.46133,3.93274 1.74768,5.66788 -0.11522,0.71755 -0.4858,2.37508 -1.31154,5.27513 -1.07473,3.77457 -1.77932,6.69213 -2.00556,11.25357 -0.22622,4.56142 -0.0853,10.81299 0.19999,22.69525 1.11721,46.53213 7.05956,104.719914 15.38976,150.703464 l 2.17299,11.99512 c 0.33872,1.85346 1.63735,3.3870602 3.40961,4.0266402 l -1.18546,1.81592 c -0.8214,1.25891 -1.06863,2.80757 -0.68006,4.25968 l 2.40297,8.9793 c 2.16739,8.0988098 4.60296,15.7246398 7.73181,24.0904998 -0.0697,-0.19281 -0.0272,-0.0521 0.0853,0.23513 0.13337,0.35573 0.26503,0.70041 0.38912,1.02785 0.15513,0.40939 0.313,0.82606 0.47646,1.25212 0.15277,0.3982 0.30652,0.79661 0.46096,1.19475 v 0.003 c 0.10152,0.26151 0.20251,0.51816 0.29972,0.76689 0.46797,1.19793 0.94972,2.41546 1.45108,3.66025 0.005,0.0132 0.0251,0.065 0.063,0.15914 l 0.003,0.003 c 0.50318,1.24775 1.02534,2.51883 1.55755,3.80392 0.12446,0.30051 0.24908,0.59954 0.37258,0.89606 0.52391,1.25799 1.06127,2.53817 1.62314,3.85815 0.006,0.0148 0.0233,0.0551 0.0491,0.11576 0.003,0.003 0.003,0.003 0.003,0.006 v 0.003 l 5.92367,13.9056 c 0.78251,1.83687 2.53193,3.07716 4.52427,3.20704 l 4.03905,0.26305 v 4.16975 9.12866 c 6e-5,0.93078 0.24583,1.84489 0.7121,2.65049 l 16.42224,28.372406 v 4.53255 c -4.00307,-2.80144 -8.85545,-4.46538 -14.08957,-4.46538 -2.89578,0 -5.68796,0.50771 -8.28063,1.42939 -0.83098,-0.96028 -1.69088,-1.90399 -2.59623,-2.82464 -0.1234,-0.12554 -0.25606,-0.26016 -0.39947,-0.40359 l -0.003,-0.003 c -0.24448,-0.2441 -0.50162,-0.49919 -0.77462,-0.76274 -0.35364,-0.34145 -0.69982,-0.66712 -1.03717,-0.98081 l -0.003,-0.003 c -0.20434,-0.18973 -0.39299,-0.3606 -0.56481,-0.51675 l -0.004,-0.004 c -0.13923,-0.12676 -0.2866,-0.26045 -0.44236,-0.39997 l -0.004,-0.004 c -0.23167,-0.20707 -0.46604,-0.41484 -0.70435,-0.6222 l -0.003,-0.003 c -0.0913,-0.0795 -0.1833,-0.15947 -0.27649,-0.23977 l -0.003,-0.003 c -0.27549,-0.2372 -0.55674,-0.47699 -0.8449,-0.71729 l -0.003,-0.003 c -11.42101,-9.522646 -24.67531,-13.632706 -41.8202,-13.522166 -9.8379,0.0637 -14.07308,0.64484 -20.87004,2.85615 -8.09787,2.63464 -15.22074,6.56942 -21.10724,11.643726 l -0.003,0.003 c -0.22715,0.19584 -0.45156,0.39301 -0.67384,0.59118 -0.003,0.003 -0.0391,0.0343 -0.0201,0.0175 -0.005,0.004 -0.008,0.008 -0.013,0.0119 -0.22027,0.19664 -0.43183,0.38981 -0.63564,0.57774 0.0217,-0.0198 -0.005,0.003 -0.0811,0.0739 -0.20232,0.18735 -0.39589,0.37034 -0.58137,0.54727 -0.0233,0.0222 -0.0572,0.0543 -0.10025,0.0956 -0.18071,0.17328 -0.36369,0.35065 -0.54879,0.53329 -0.051,0.0503 -0.0977,0.0968 -0.14005,0.13902 -0.17116,0.17015 -0.34062,0.34112 -0.5085,0.51263 -0.0554,0.0567 -0.1138,0.11652 -0.17518,0.17983 -0.15576,0.16066 -0.30946,0.32131 -0.46146,0.48213 h -0.003 c -0.0704,0.0745 -0.13758,0.14697 -0.20259,0.21653 -0.1429,0.15288 -0.29065,0.31213 -0.44233,0.47853 -0.70835,0.77729 -1.37621,1.58726 -2.03502,2.40398 -2.52791,-0.86995 -5.24208,-1.34462 -8.05172,-1.34462 -5.212,0 -10.04552,1.64905 -14.03842,4.42868 v -2.02055 c 0.25553,-0.43918 0.5076,-0.8727 0.81132,-1.39578 l 17.39482,-29.957866 c 0.46849,-0.80711 0.71522,-1.72394 0.71519,-2.65721 v -9.14569 -3.85403 h 3.45406 c 2.07116,0 3.95203,-1.20811 4.81314,-3.09179 l 3.39926,-7.43728 c 0.42513,-0.93003 0.83791,-1.84512 1.24439,-2.75177 0.1493,-0.33319 0.29355,-0.65746 0.43563,-0.97668 0.28046,-0.63027 0.55658,-1.25654 0.82889,-1.87741 0.13227,-0.30167 0.26808,-0.61058 0.40513,-0.92551 0.29403,-0.67553 0.58206,-1.3435 0.86559,-2.0061 0.10067,-0.23534 0.21153,-0.49212 0.32763,-0.7653 0.004,-0.0106 0.009,-0.0214 0.0135,-0.032 -0.009,0.0212 0.004,-0.009 0,-0.003 0,0 0,-0.003 0.003,-0.003 v -0.003 c 0.34473,-0.81135 0.68061,-1.61428 1.01129,-2.4102 0.17611,-0.42399 0.34425,-0.8351 0.50903,-1.23661 0.18674,-0.45495 0.37441,-0.91294 0.56068,-1.37302 0.17849,-0.44096 0.35481,-0.88009 0.52917,-1.31673 0.15954,-0.3996 0.31419,-0.79129 0.46611,-1.17668 0.18357,-0.46546 0.37314,-0.94393 0.56277,-1.43246 0.003,-0.008 0.005,-0.0164 0.008,-0.0243 3.67189,-9.46184 6.62054,-18.56716 9.21081,-28.3150698 l 2.7962,-10.52338 c 0.38505,-1.4496 0.13697,-2.99429 -0.68263,-4.2504 l -1.3472,-2.06499 c 0.44005,-0.1614 0.94263,-0.38325 1.82573,-1.2624602 l 0.003,-0.003 c 1.6704,-1.66399 1.20005,-1.77903 1.31567,-2.09341 0.11562,-0.31438 0.17918,-0.53483 0.24495,-0.76946 0.13158,-0.46924 0.24995,-0.96258 0.3855,-1.56218 0.27109,-1.1992 0.59457,-2.78302 0.9648,-4.70048 0.74047,-3.83492 1.66003,-8.97652 2.59107,-14.55571 8.2441,-49.40366 14.11335,-112.239554 14.11335,-151.629504 0,-13.57188 -0.4173,-18.17817 -2.24174,-24.30444 -0.7408,-2.48759 -1.10127,-4.11207 -1.17768,-4.78782 -0.003,-0.022 -0.003,-0.0159 -0.005,-0.0352 0.87781,-1.54414 1.31451,-2.88258 1.45212,-4.58266 -0.007,0.0198 -0.005,-0.039 0.0109,-0.13902 0.0257,-0.3629 0.0424,-0.73694 0.0424,-1.13945 0,0.54729 -0.0143,0.88215 -0.0289,1.07384 0.0329,-0.16807 0.099,-0.40328 0.23616,-0.60876 0.4313,-0.64616 1.16782,-1.53982 1.90479,-2.24792 z m -4.48966,5.11339 c -0.004,0.0217 -0.0103,0.0467 -0.0135,0.0656 -0.003,0.0468 -0.007,0.0928 -0.0108,0.13901 0.005,-0.0154 0.0148,-0.0793 0.0243,-0.20463 z m 8.44238,-0.786 c 0.004,0.006 0.0135,0.0175 0.0169,0.0233 0.20502,0.32925 0.0249,0.49112 -0.0169,-0.0233 z M 227.30447,9.9944042 c -3.24164,-0.005 -5.25901,0.0284 -7.23884,0.3865598 -1.31987,0.23873 -3.11533,0.8034 -4.47569,2.32645 -1.36033,1.52308 -1.58022,3.01866 -1.71617,3.67885 -0.24455,1.18819 -1.1549,5.61369 -2.02313,9.83662 -0.69522,3.38154 -2.40374,10.47004 -4.04059,16.91111 -0.81843,3.22051 -1.62274,6.30121 -2.27996,8.71781 -0.65723,2.41657 -1.30755,4.49072 -1.29088,4.44728 -0.65199,1.69947 0.23461,5.04404 1.50638,6.17998 1.27185,1.13601 2.10299,1.2605 2.79929,1.44436 1.39261,0.36769 2.55728,0.44492 4.28916,0.5462 3.46374,0.20262 8.8673,0.25736 17.56325,0.25736 6.81488,0 12.28323,-0.0875 16.15303,-0.25527 1.9349,-0.0839 3.448,-0.18177 4.67828,-0.32763 0.61513,-0.0729 1.12604,-0.13676 1.83708,-0.32454 0.35552,-0.0939 0.74637,-0.1746 1.49138,-0.58653 0.37253,-0.20595 0.86413,-0.48932 1.47227,-1.17615 0.60817,-0.68683 1.35393,-2.0134 1.35393,-3.56256 0,-0.95216 -0.0619,-0.85749 -0.092,-1.04439 -0.0301,-0.18688 -0.062,-0.35886 -0.0997,-0.55655 -0.0755,-0.3954 -0.17505,-0.88038 -0.30078,-1.47744 -0.25138,-1.19411 -0.60629,-2.81958 -1.04386,-4.78163 -0.87505,-3.92403 -2.07748,-9.18516 -3.40029,-14.85749 -1.31749,-5.64967 -2.51539,-10.84868 -3.38172,-14.66368 -0.43315,-1.90754 -0.78364,-3.47118 -1.02216,-4.5589 -0.11928,-0.54388 -0.21127,-0.97179 -0.26715,-1.24283 -0.005,-0.0217 -0.004,-0.022 -0.008,-0.0419 0.008,0.1374 0.0196,0.12626 0.0196,0.57878 0,-1.87727 -1.02293,-3.26038 -1.67327,-3.87469 -0.65032,-0.61431 -1.09149,-0.81235 -1.42008,-0.9674 -0.65714,-0.31004 -0.95408,-0.35758 -1.22523,-0.42116 -0.54231,-0.12714 -0.88365,-0.16442 -1.28262,-0.20979 -0.7979,-0.0908 -1.7059,-0.15118 -2.81223,-0.20466 -2.21266,-0.10692 -5.14371,-0.16949 -8.3752,-0.16949 v 0 c -1.3965,0 -2.61326,-0.006 -3.69382,-0.008 z m 3.69383,5.2994198 c 6.32343,0 11.49696,0.25016 11.49696,0.55552 0,0.30541 2.15927,9.81387 4.79817,21.12999 2.639,11.31615 4.79816,20.99842 4.79816,21.516 0,0.5874 -8.1567,0.94102 -21.6943,0.94102 -17.34118,0 -21.5983,-0.24935 -21.21781,-1.24074 1.03892,-2.70753 6.36789,-23.6768 7.85429,-30.90664 0.86813,-4.22235 1.77874,-8.64809 2.02314,-9.83559 0.43122,-2.09429 0.78996,-2.15956 11.94139,-2.15956 z m 39.71747,31.86575 v 0 l 0.004,0.009 h -0.003 c 0,0 -0.003,-0.009 -0.003,-0.009 z m 0.047,54.790976 c 0.003,0 0.0341,0.006 0.0341,0.006 0,0 0.0468,0.0222 0.0522,0.0249 -0.0287,-0.0106 -0.0575,-0.0209 -0.0863,-0.031 z m 0.71882,0.33073 c 0.013,0.007 0.0354,0.0159 0.0455,0.0217 0.0622,0.0356 0.0596,0.0417 0.10904,0.0718 -0.0511,-0.0321 -0.10235,-0.0632 -0.15452,-0.0935 z m 0.52504,0.33848 c 0.0188,0.014 0.0709,0.0451 0.0878,0.0579 0.0662,0.0501 0.0635,0.0536 0.10647,0.0884 -0.0636,-0.0501 -0.12851,-0.0991 -0.19431,-0.14624 z m 0.35708,0.28059 c 0.0175,0.0159 0.0684,0.0553 0.0832,0.0687 0.12528,0.11316 0.19325,0.18396 0.19325,0.18396 -0.0892,-0.0876 -0.18129,-0.1716 -0.27646,-0.2527 z m 15.70241,22.94279 a 7.6056501,7.6056501 0 0 0 -3.96256,1.12191 c 1.3113,3.16497 2.34868,6.56307 3.14349,10.26139 l 0.82267,3.82818 a 7.6056501,7.6056501 0 0 0 7.60214,-7.60574 7.6056501,7.6056501 0 0 0 -7.60574,-7.60574 z m -114.22814,0.28424 a 7.6056501,7.6056501 0 0 0 -7.60574,7.60571 7.6056501,7.6056501 0 0 0 7.60574,7.60574 7.6056501,7.6056501 0 0 0 1.60351,-0.18087 l 0.32917,-2.63289 c 0.47802,-3.82604 1.34416,-7.47043 2.57299,-10.90891 a 7.6056501,7.6056501 0 0 0 -4.50567,-1.48878 z"
         style="fill:#cca447;fill-opacity:1;stroke:none;stroke-width:0.95961112;stroke-miterlimit:4;stroke-dasharray:none;stroke-opacity:1" />
    </g>
  </g>
</svg>
